<svg version="1.1" id="Layer_1" xmlns="http://www.w3.org/2000/svg" xmlns:xlink="http://www.w3.org/1999/xlink" x="0px" y="0px"
	 width="100%" viewBox="0 0 480 357" enable-background="new 0 0 480 357" xml:space="preserve">
<path fill="" opacity="000000" stroke="none" 
	d="
M283.000000,358.000000 
	C188.666672,358.000000 94.833359,358.000000 1.000025,358.000000 
	C1.000017,239.000031 1.000017,120.000053 1.000008,1.000057 
	C160.999954,1.000038 320.999908,1.000038 480.999908,1.000019 
	C480.999939,119.999939 480.999939,238.999878 480.999969,357.999908 
	C415.166656,358.000000 349.333344,358.000000 283.000000,358.000000 
M136.132965,268.952789 
	C136.132965,268.952789 136.080765,269.187836 136.080765,269.187836 
	C136.080765,269.187836 136.026474,269.004425 135.403732,268.585754 
	C132.457016,261.360107 130.228516,253.731949 126.442619,246.976608 
	C107.281342,212.786301 104.195671,176.922440 115.057556,139.754517 
	C118.057068,129.490585 123.129379,119.832413 127.437943,109.444710 
	C126.180771,108.859055 124.464554,108.059547 122.734734,107.253700 
	C122.011337,108.144814 121.538345,108.614334 121.199608,109.166260 
	C120.241615,110.727165 119.248192,112.276382 118.427177,113.909843 
	C95.719948,159.087540 97.061775,204.056564 119.940277,248.674210 
	C123.908127,256.412323 128.012360,264.322327 136.132965,268.952789 
M336.919373,127.301849 
	C329.624939,136.652344 326.436310,147.084045 328.438995,158.946396 
	C328.712341,160.565460 328.452667,162.272598 328.460266,163.938843 
	C328.477112,167.627426 328.384094,170.821289 324.453522,173.302719 
	C320.414093,175.852859 320.432983,182.166611 323.555176,185.783920 
	C326.608398,189.321335 331.955963,189.850937 335.748352,186.991486 
	C339.730286,183.989105 341.059418,178.100021 337.712067,174.647354 
	C334.999390,171.849365 334.754547,169.020370 334.896240,165.632355 
	C335.049255,161.973038 335.446564,158.211548 334.828979,154.652237 
	C332.395325,140.626160 343.110962,132.368942 348.622070,121.631279 
	C349.747864,123.267799 350.267944,124.783684 350.511810,126.342781 
	C357.060608,168.214920 345.052643,203.658371 313.751190,232.430298 
	C311.810303,234.214340 310.159790,235.167206 307.179321,234.342834 
	C302.337463,233.003662 297.763214,236.370056 296.725647,241.214050 
	C295.703369,245.986588 298.650085,250.622055 303.509003,251.885040 
	C308.144531,253.089966 313.759125,250.266342 314.112274,245.383499 
	C314.493256,240.115341 317.708252,237.564651 321.010345,234.613159 
	C363.504730,196.630524 371.364655,126.411285 338.496521,79.892006 
	C337.075928,77.881378 336.589508,74.831985 336.600128,72.270348 
	C336.620117,67.439255 333.340851,63.029785 328.511139,62.395248 
	C323.800293,61.776325 319.405487,64.951355 318.607880,69.549881 
	C317.759674,74.440132 320.732574,79.943535 325.499817,79.962608 
	C331.086365,79.984962 333.054230,83.479973 335.145782,87.163818 
	C338.183838,92.514641 340.717682,98.151520 343.749908,103.505943 
	C346.625183,108.583153 346.403320,113.071823 342.729553,117.708755 
	C340.576172,120.426720 339.089172,123.672653 336.919373,127.301849 
M152.020325,211.344025 
	C151.535492,213.725327 151.516937,216.339172 150.469345,218.439835 
	C148.245453,222.899292 145.514679,227.108978 142.934616,231.386642 
	C141.468491,233.817459 139.889603,236.180267 137.795807,239.459686 
	C137.055161,237.094223 136.589355,236.046158 136.403870,234.950623 
	C129.150177,192.111313 141.515076,156.035690 173.890640,126.991081 
	C175.172028,125.841530 177.722076,125.584114 179.614120,125.737274 
	C184.838806,126.160194 189.420120,122.948372 190.060425,117.955620 
	C190.704208,112.935722 187.462814,108.518074 182.613403,107.806152 
	C177.431732,107.045464 172.919098,110.814758 172.033630,116.116089 
	C171.691772,118.162865 170.745895,120.604073 169.240356,121.882149 
	C158.040939,131.389557 148.615219,142.407333 142.207565,155.568420 
	C121.081963,198.959595 121.896820,241.235825 149.581192,281.891418 
	C150.374374,283.056244 150.586670,284.922882 150.414307,286.384979 
	C149.734375,292.153168 153.017349,296.895203 158.443115,297.588806 
	C162.972183,298.167755 167.652802,294.243164 168.116409,289.478058 
	C168.642578,284.069824 165.042191,280.159821 159.434402,279.278442 
	C157.463821,278.968719 154.897293,277.742096 153.993912,276.146545 
	C149.498505,268.206635 145.284042,260.089447 141.424850,251.822693 
	C140.645813,250.153900 141.245789,247.252060 142.214279,245.462097 
	C145.777420,238.876678 149.485687,232.332672 153.670334,226.131424 
	C157.573868,220.346756 159.404709,214.464066 158.377792,207.422638 
	C157.711533,202.854065 157.879257,198.082108 158.338562,193.467499 
	C158.550934,191.333649 159.921982,188.899460 161.518143,187.400589 
	C165.550720,183.613846 166.499481,177.931732 163.193909,174.049500 
	C160.084641,170.397827 154.316544,169.936340 150.584015,173.040634 
	C146.409561,176.512482 146.203903,181.976059 149.693253,186.388046 
	C150.882034,187.891190 151.721863,190.061493 151.812332,191.970032 
	C152.103683,198.116623 151.971329,204.283310 152.020325,211.344025 
M275.941528,85.618469 
	C235.966400,57.586304 179.364426,56.119328 138.386459,85.554771 
	C137.018692,86.537270 134.735870,86.748161 132.957947,86.563644 
	C127.527710,86.000092 122.759682,89.297104 122.102539,94.448494 
	C121.495880,99.204201 125.070145,103.852585 129.821701,104.487366 
	C135.005203,105.179840 139.298752,101.368004 140.240906,96.007042 
	C140.611008,93.901245 141.976349,91.352798 143.691238,90.195801 
	C162.234573,77.684959 182.663300,70.703812 205.149307,70.648277 
	C240.093628,70.561974 269.418854,83.379875 292.625153,109.656616 
	C293.830139,111.021034 294.529144,113.460388 294.357788,115.296059 
	C293.814514,121.116379 296.646515,125.692200 301.808075,126.406693 
	C306.560028,127.064507 311.339203,123.540222 311.989838,118.898392 
	C312.767822,113.348564 309.198669,109.205971 303.310516,108.221527 
	C301.396759,107.901566 299.384613,106.783463 297.906952,105.476860 
	C290.691742,99.096817 283.642090,92.529556 275.941528,85.618469 
M280.501099,295.797974 
	C305.001801,295.629944 327.410034,288.868988 347.623901,274.850006 
	C349.370514,273.638672 352.148560,273.501862 354.429962,273.559570 
	C359.294739,273.682556 364.097015,269.956909 364.672913,265.142365 
	C365.233826,260.453217 361.518555,255.885254 356.698029,255.337112 
	C351.642853,254.762283 346.751862,258.381927 346.737976,263.516663 
	C346.728607,266.985229 345.049957,268.520477 342.601318,270.154144 
	C321.966431,283.921173 299.202972,290.395447 274.500549,289.243073 
	C242.268005,287.739441 215.383759,274.669617 194.124191,250.337646 
	C192.914932,248.953629 192.168152,246.522919 192.344467,244.688782 
	C192.924240,238.657028 189.997574,234.032913 184.590744,233.347717 
	C179.751999,232.734543 174.993362,236.652985 174.515503,241.644058 
	C174.022308,246.795380 177.887894,250.927307 183.457718,251.668732 
	C185.221741,251.903534 187.370087,252.659515 188.475677,253.930847 
	C212.542709,281.605774 243.083023,295.077515 280.501099,295.797974 
M382.842468,160.451553 
	C379.084930,134.888107 370.233032,111.586853 352.767700,91.218811 
	C352.282898,92.614365 351.882965,93.153915 352.014526,93.477135 
	C354.696167,100.065140 356.917419,106.906693 360.252411,113.151993 
	C384.067261,157.749359 384.103394,202.220551 360.166931,246.736908 
	C359.576172,247.835663 359.165802,249.031433 358.626953,250.285080 
	C360.214508,250.976761 361.409180,251.528122 362.630249,252.012970 
	C363.073181,252.188828 363.579224,252.205719 364.423523,252.363907 
	C381.350433,224.203430 386.999573,193.778595 382.842468,160.451553 
M236.782104,47.634327 
	C254.076797,50.968445 269.888000,57.690006 283.755188,68.622063 
	C285.139832,69.713623 285.993713,72.050758 286.229248,73.918839 
	C286.901794,79.253563 290.817841,83.137848 295.771057,82.824074 
	C300.924805,82.497597 304.732422,78.096436 304.258759,73.013214 
	C303.762970,67.692345 299.416290,64.512733 293.725586,64.875145 
	C291.943268,64.988647 289.716675,64.551224 288.332855,63.513405 
	C272.989716,52.006603 255.947418,44.525578 237.091019,41.016895 
	C235.234619,40.671471 233.224182,39.302612 231.987823,37.822071 
	C228.233932,33.326763 223.063217,32.233028 218.811646,35.461914 
	C214.764618,38.535496 214.127106,44.887169 217.468262,48.846996 
	C220.817841,52.816849 226.182571,52.757076 230.836182,49.097279 
	C232.151855,48.062592 234.248947,48.021511 236.782104,47.634327 
M233.650162,314.738739 
	C239.137161,316.092468 244.663712,317.309479 250.088135,318.879425 
	C251.817551,319.379974 253.640778,320.511353 254.791168,321.882568 
	C258.581207,326.400085 263.755493,327.504730 267.893402,324.321655 
	C271.944885,321.205048 272.669312,315.389801 269.497192,311.447601 
	C266.262512,307.427643 260.738525,307.216431 256.141357,310.581909 
	C254.735687,311.610962 252.567917,312.475159 250.951111,312.205261 
	C233.239410,309.247986 217.124786,302.441620 203.019943,291.247345 
	C201.629715,290.144012 200.726212,287.830994 200.500793,285.969971 
	C199.865799,280.727386 195.989700,276.784241 191.044312,276.950958 
	C186.175415,277.115112 181.996552,281.789124 182.347916,286.677826 
	C182.717819,291.824371 186.860062,295.016998 192.259384,295.087921 
	C194.826462,295.121613 197.821823,295.781189 199.860199,297.230408 
	C210.102203,304.512024 220.904602,310.609314 233.650162,314.738739 
M239.586121,160.641235 
	C239.461624,176.440933 239.156387,192.242569 239.324951,208.039139 
	C239.374237,212.657684 242.343887,215.586121 247.756622,215.886810 
	C247.756622,199.751999 247.909988,183.816193 247.653992,167.886978 
	C247.585892,163.648849 244.699783,160.965988 239.586121,160.641235 
M219.890823,314.841034 
	C204.085983,308.442657 188.281143,302.044281 171.961868,295.437622 
	C171.322220,296.327576 170.232880,297.843170 169.006119,299.549988 
	C188.482605,311.850128 209.188736,318.276825 231.534378,319.808807 
	C227.885056,318.254486 224.235718,316.700165 219.890823,314.841034 
M298.772461,57.519051 
	C303.801941,60.029728 308.831451,62.540409 314.204865,65.222778 
	C315.444061,63.607815 316.576691,62.131718 317.939331,60.355854 
	C299.283813,48.776894 279.930298,41.605446 258.510040,40.599102 
	C260.350372,41.944191 262.268372,43.077484 264.313538,43.891113 
	C275.556976,48.364166 286.831543,52.759003 298.772461,57.519051 
M193.989960,47.676872 
	C182.647141,52.024342 171.878067,57.383686 162.591599,65.491959 
	C179.971451,63.590176 194.115494,52.550533 211.358932,49.563972 
	C210.613831,46.835426 210.118027,45.019844 209.500534,42.758579 
	C204.189301,44.433224 199.455872,45.925686 193.989960,47.676872 
M321.744415,297.193573 
	C322.767731,296.321564 323.791046,295.449524 324.814362,294.577515 
	C324.511261,293.989563 324.208191,293.401611 323.905090,292.813690 
	C307.911621,298.897461 291.918182,304.981232 275.627716,311.177979 
	C276.210724,313.164459 276.704956,314.848389 277.267151,316.763947 
	C293.378937,313.169281 307.690491,306.379700 321.744415,297.193573 
M239.223892,138.356689 
	C239.276962,141.010773 239.020432,143.716263 239.450851,146.307663 
	C240.224991,150.968414 243.150299,153.048813 247.602020,152.614807 
	C248.487366,141.797836 246.642715,138.336090 239.223892,138.356689 
z"/>
<path fill="#75C751" opacity="1.000000" stroke="none" 
	d="
M337.110901,126.991463 
	C339.089172,123.672653 340.576172,120.426720 342.729553,117.708755 
	C346.403320,113.071823 346.625183,108.583153 343.749908,103.505943 
	C340.717682,98.151520 338.183838,92.514641 335.145782,87.163818 
	C333.054230,83.479973 331.086365,79.984962 325.499817,79.962608 
	C320.732574,79.943535 317.759674,74.440132 318.607880,69.549881 
	C319.405487,64.951355 323.800293,61.776325 328.511139,62.395248 
	C333.340851,63.029785 336.620117,67.439255 336.600128,72.270348 
	C336.589508,74.831985 337.075928,77.881378 338.496521,79.892006 
	C371.364655,126.411285 363.504730,196.630524 321.010345,234.613159 
	C317.708252,237.564651 314.493256,240.115341 314.112274,245.383499 
	C313.759125,250.266342 308.144531,253.089966 303.509003,251.885040 
	C298.650085,250.622055 295.703369,245.986588 296.725647,241.214050 
	C297.763214,236.370056 302.337463,233.003662 307.179321,234.342834 
	C310.159790,235.167206 311.810303,234.214340 313.751190,232.430298 
	C345.052643,203.658371 357.060608,168.214920 350.511810,126.342781 
	C350.267944,124.783684 349.747864,123.267799 348.622070,121.631279 
	C343.110962,132.368942 332.395325,140.626160 334.828979,154.652237 
	C335.446564,158.211548 335.049255,161.973038 334.896240,165.632355 
	C334.754547,169.020370 334.999390,171.849365 337.712067,174.647354 
	C341.059418,178.100021 339.730286,183.989105 335.748352,186.991486 
	C331.955963,189.850937 326.608398,189.321335 323.555176,185.783920 
	C320.432983,182.166611 320.414093,175.852859 324.453522,173.302719 
	C328.384094,170.821289 328.477112,167.627426 328.460266,163.938843 
	C328.452667,162.272598 328.712341,160.565460 328.438995,158.946396 
	C326.436310,147.084045 329.624939,136.652344 337.110901,126.991463 
z"/>
<path fill="#76C852" opacity="1.000000" stroke="none" 
	d="
M152.011353,210.893127 
	C151.971329,204.283310 152.103683,198.116623 151.812332,191.970032 
	C151.721863,190.061493 150.882034,187.891190 149.693253,186.388046 
	C146.203903,181.976059 146.409561,176.512482 150.584015,173.040634 
	C154.316544,169.936340 160.084641,170.397827 163.193909,174.049500 
	C166.499481,177.931732 165.550720,183.613846 161.518143,187.400589 
	C159.921982,188.899460 158.550934,191.333649 158.338562,193.467499 
	C157.879257,198.082108 157.711533,202.854065 158.377792,207.422638 
	C159.404709,214.464066 157.573868,220.346756 153.670334,226.131424 
	C149.485687,232.332672 145.777420,238.876678 142.214279,245.462097 
	C141.245789,247.252060 140.645813,250.153900 141.424850,251.822693 
	C145.284042,260.089447 149.498505,268.206635 153.993912,276.146545 
	C154.897293,277.742096 157.463821,278.968719 159.434402,279.278442 
	C165.042191,280.159821 168.642578,284.069824 168.116409,289.478058 
	C167.652802,294.243164 162.972183,298.167755 158.443115,297.588806 
	C153.017349,296.895203 149.734375,292.153168 150.414307,286.384979 
	C150.586670,284.922882 150.374374,283.056244 149.581192,281.891418 
	C121.896820,241.235825 121.081963,198.959595 142.207565,155.568420 
	C148.615219,142.407333 158.040939,131.389557 169.240356,121.882149 
	C170.745895,120.604073 171.691772,118.162865 172.033630,116.116089 
	C172.919098,110.814758 177.431732,107.045464 182.613403,107.806152 
	C187.462814,108.518074 190.704208,112.935722 190.060425,117.955620 
	C189.420120,122.948372 184.838806,126.160194 179.614120,125.737274 
	C177.722076,125.584114 175.172028,125.841530 173.890640,126.991081 
	C141.515076,156.035690 129.150177,192.111313 136.403870,234.950623 
	C136.589355,236.046158 137.055161,237.094223 137.795807,239.459686 
	C139.889603,236.180267 141.468491,233.817459 142.934616,231.386642 
	C145.514679,227.108978 148.245453,222.899292 150.469345,218.439835 
	C151.516937,216.339172 151.535492,213.725327 152.011353,210.893127 
M156.631714,182.786163 
	C157.201584,181.258667 157.771439,179.731155 158.341293,178.203659 
	C157.045364,178.177017 155.749451,178.150375 154.453522,178.123734 
	C154.944046,179.656265 155.434570,181.188782 156.631714,182.786163 
M183.199966,118.397255 
	C182.578888,116.943993 181.957794,115.490730 181.336716,114.037483 
	C180.392334,114.945976 179.447952,115.854469 178.503555,116.762947 
	C179.908508,117.479202 181.313477,118.195457 183.199966,118.397255 
z"/>
<path fill="#74C550" opacity="1.000000" stroke="none" 
	d="
M276.237701,85.823486 
	C283.642090,92.529556 290.691742,99.096817 297.906952,105.476860 
	C299.384613,106.783463 301.396759,107.901566 303.310516,108.221527 
	C309.198669,109.205971 312.767822,113.348564 311.989838,118.898392 
	C311.339203,123.540222 306.560028,127.064507 301.808075,126.406693 
	C296.646515,125.692200 293.814514,121.116379 294.357788,115.296059 
	C294.529144,113.460388 293.830139,111.021034 292.625153,109.656616 
	C269.418854,83.379875 240.093628,70.561974 205.149307,70.648277 
	C182.663300,70.703812 162.234573,77.684959 143.691238,90.195801 
	C141.976349,91.352798 140.611008,93.901245 140.240906,96.007042 
	C139.298752,101.368004 135.005203,105.179840 129.821701,104.487366 
	C125.070145,103.852585 121.495880,99.204201 122.102539,94.448494 
	C122.759682,89.297104 127.527710,86.000092 132.957947,86.563644 
	C134.735870,86.748161 137.018692,86.537270 138.386459,85.554771 
	C179.364426,56.119328 235.966400,57.586304 276.237701,85.823486 
z"/>
<path fill="#75C751" opacity="1.000000" stroke="none" 
	d="
M280.008850,295.796234 
	C243.083023,295.077515 212.542709,281.605774 188.475677,253.930847 
	C187.370087,252.659515 185.221741,251.903534 183.457718,251.668732 
	C177.887894,250.927307 174.022308,246.795380 174.515503,241.644058 
	C174.993362,236.652985 179.751999,232.734543 184.590744,233.347717 
	C189.997574,234.032913 192.924240,238.657028 192.344467,244.688782 
	C192.168152,246.522919 192.914932,248.953629 194.124191,250.337646 
	C215.383759,274.669617 242.268005,287.739441 274.500549,289.243073 
	C299.202972,290.395447 321.966431,283.921173 342.601318,270.154144 
	C345.049957,268.520477 346.728607,266.985229 346.737976,263.516663 
	C346.751862,258.381927 351.642853,254.762283 356.698029,255.337112 
	C361.518555,255.885254 365.233826,260.453217 364.672913,265.142365 
	C364.097015,269.956909 359.294739,273.682556 354.429962,273.559570 
	C352.148560,273.501862 349.370514,273.638672 347.623901,274.850006 
	C327.410034,288.868988 305.001801,295.629944 280.008850,295.796234 
z"/>
<path fill="#74C651" opacity="1.000000" stroke="none" 
	d="
M135.999756,269.016998 
	C128.012360,264.322327 123.908127,256.412323 119.940277,248.674210 
	C97.061775,204.056564 95.719948,159.087540 118.427177,113.909843 
	C119.248192,112.276382 120.241615,110.727165 121.199608,109.166260 
	C121.538345,108.614334 122.011337,108.144814 122.734734,107.253700 
	C124.464554,108.059547 126.180771,108.859055 127.437943,109.444710 
	C123.129379,119.832413 118.057068,129.490585 115.057556,139.754517 
	C104.195671,176.922440 107.281342,212.786301 126.442619,246.976608 
	C130.228516,253.731949 132.457016,261.360107 135.698944,268.789001 
	C135.994141,268.992218 135.999756,269.016998 135.999756,269.016998 
z"/>
<path fill="#74C550" opacity="1.000000" stroke="none" 
	d="
M382.892212,160.894867 
	C386.999573,193.778595 381.350433,224.203430 364.423523,252.363907 
	C363.579224,252.205719 363.073181,252.188828 362.630249,252.012970 
	C361.409180,251.528122 360.214508,250.976761 358.626953,250.285080 
	C359.165802,249.031433 359.576172,247.835663 360.166931,246.736908 
	C384.103394,202.220551 384.067261,157.749359 360.252411,113.151993 
	C356.917419,106.906693 354.696167,100.065140 352.014526,93.477135 
	C351.882965,93.153915 352.282898,92.614365 352.767700,91.218811 
	C370.233032,111.586853 379.084930,134.888107 382.892212,160.894867 
z"/>
<path fill="#74C651" opacity="1.000000" stroke="none" 
	d="
M236.384888,47.579529 
	C234.248947,48.021511 232.151855,48.062592 230.836182,49.097279 
	C226.182571,52.757076 220.817841,52.816849 217.468262,48.846996 
	C214.127106,44.887169 214.764618,38.535496 218.811646,35.461914 
	C223.063217,32.233028 228.233932,33.326763 231.987823,37.822071 
	C233.224182,39.302612 235.234619,40.671471 237.091019,41.016895 
	C255.947418,44.525578 272.989716,52.006603 288.332855,63.513405 
	C289.716675,64.551224 291.943268,64.988647 293.725586,64.875145 
	C299.416290,64.512733 303.762970,67.692345 304.258759,73.013214 
	C304.732422,78.096436 300.924805,82.497597 295.771057,82.824074 
	C290.817841,83.137848 286.901794,79.253563 286.229248,73.918839 
	C285.993713,72.050758 285.139832,69.713623 283.755188,68.622063 
	C269.888000,57.690006 254.076797,50.968445 236.384888,47.579529 
M293.989166,71.758736 
	C294.145447,73.347115 294.301727,74.935486 294.458008,76.523880 
	C295.532837,76.049072 296.607635,75.574265 297.682434,75.099442 
	C296.675629,73.878220 295.668823,72.656998 293.989166,71.758736 
z"/>
<path fill="#76C852" opacity="1.000000" stroke="none" 
	d="
M233.267151,314.629395 
	C220.904602,310.609314 210.102203,304.512024 199.860199,297.230408 
	C197.821823,295.781189 194.826462,295.121613 192.259384,295.087921 
	C186.860062,295.016998 182.717819,291.824371 182.347916,286.677826 
	C181.996552,281.789124 186.175415,277.115112 191.044312,276.950958 
	C195.989700,276.784241 199.865799,280.727386 200.500793,285.969971 
	C200.726212,287.830994 201.629715,290.144012 203.019943,291.247345 
	C217.124786,302.441620 233.239410,309.247986 250.951111,312.205261 
	C252.567917,312.475159 254.735687,311.610962 256.141357,310.581909 
	C260.738525,307.216431 266.262512,307.427643 269.497192,311.447601 
	C272.669312,315.389801 271.944885,321.205048 267.893402,324.321655 
	C263.755493,327.504730 258.581207,326.400085 254.791168,321.882568 
	C253.640778,320.511353 251.817551,319.379974 250.088135,318.879425 
	C244.663712,317.309479 239.137161,316.092468 233.267151,314.629395 
M189.096436,284.848877 
	C190.113922,286.078613 191.131393,287.308380 192.148849,288.538147 
	C192.777893,287.514069 193.406921,286.489960 194.035965,285.465881 
	C192.516342,285.042511 190.996719,284.619141 189.096436,284.848877 
z"/>
<path fill="#ECECEC" opacity="1.000000" stroke="none" 
	d="
M239.951019,160.476410 
	C244.699783,160.965988 247.585892,163.648849 247.653992,167.886978 
	C247.909988,183.816193 247.756622,199.751999 247.756622,215.886810 
	C242.343887,215.586121 239.374237,212.657684 239.324951,208.039139 
	C239.156387,192.242569 239.461624,176.440933 239.951019,160.476410 
z"/>
<path fill="#73C450" opacity="1.000000" stroke="none" 
	d="
M220.238617,314.993439 
	C224.235718,316.700165 227.885056,318.254486 231.534378,319.808807 
	C209.188736,318.276825 188.482605,311.850128 169.006119,299.549988 
	C170.232880,297.843170 171.322220,296.327576 171.961868,295.437622 
	C188.281143,302.044281 204.085983,308.442657 220.238617,314.993439 
z"/>
<path fill="#73C450" opacity="1.000000" stroke="none" 
	d="
M298.433960,57.349865 
	C286.831543,52.759003 275.556976,48.364166 264.313538,43.891113 
	C262.268372,43.077484 260.350372,41.944191 258.510040,40.599102 
	C279.930298,41.605446 299.283813,48.776894 317.939331,60.355854 
	C316.576691,62.131718 315.444061,63.607815 314.204865,65.222778 
	C308.831451,62.540409 303.801941,60.029728 298.433960,57.349865 
z"/>
<path fill="#73C450" opacity="1.000000" stroke="none" 
	d="
M194.356201,47.547508 
	C199.455872,45.925686 204.189301,44.433224 209.500534,42.758579 
	C210.118027,45.019844 210.613831,46.835426 211.358932,49.563972 
	C194.115494,52.550533 179.971451,63.590176 162.591599,65.491959 
	C171.878067,57.383686 182.647141,52.024342 194.356201,47.547508 
z"/>
<path fill="#74C550" opacity="1.000000" stroke="none" 
	d="
M321.443604,297.397095 
	C307.690491,306.379700 293.378937,313.169281 277.267151,316.763947 
	C276.704956,314.848389 276.210724,313.164459 275.627716,311.177979 
	C291.918182,304.981232 307.911621,298.897461 323.905090,292.813690 
	C324.208191,293.401611 324.511261,293.989563 324.814362,294.577515 
	C323.791046,295.449524 322.767731,296.321564 321.443604,297.397095 
z"/>
<path fill="#E6E6E6" opacity="1.000000" stroke="none" 
	d="
M239.434067,138.018829 
	C246.642715,138.336090 248.487366,141.797836 247.602020,152.614807 
	C243.150299,153.048813 240.224991,150.968414 239.450851,146.307663 
	C239.020432,143.716263 239.276962,141.010773 239.434067,138.018829 
z"/>
<path fill="#74C651" opacity="1.000000" stroke="none" 
	d="
M136.010315,268.998322 
	C136.026474,269.004425 136.080765,269.187836 136.080765,269.187836 
	C136.080765,269.187836 136.132965,268.952789 136.066360,268.984894 
	C135.999756,269.016998 135.994141,268.992218 136.010315,268.998322 
z"/>
<path fill="#1C3013" opacity="1.000000" stroke="none" 
	d="
M156.278397,182.753738 
	C155.434570,181.188782 154.944046,179.656265 154.453522,178.123734 
	C155.749451,178.150375 157.045364,178.177017 158.341293,178.203659 
	C157.771439,179.731155 157.201584,181.258667 156.278397,182.753738 
z"/>
<path fill="#1C2F13" opacity="1.000000" stroke="none" 
	d="
M182.959198,118.654480 
	C181.313477,118.195457 179.908508,117.479202 178.503571,116.762955 
	C179.447952,115.854469 180.392334,114.945976 181.336700,114.037476 
	C181.957794,115.490730 182.578888,116.943993 182.959198,118.654480 
z"/>
<path fill="#1D3214" opacity="1.000000" stroke="none" 
	d="
M294.325592,71.597260 
	C295.668823,72.656998 296.675629,73.878220 297.682434,75.099449 
	C296.607635,75.574265 295.532837,76.049072 294.458008,76.523872 
	C294.301727,74.935486 294.145447,73.347115 294.325592,71.597260 
z"/>
<path fill="#1A2C12" opacity="1.000000" stroke="none" 
	d="
M189.286774,284.522339 
	C190.996719,284.619141 192.516342,285.042511 194.035950,285.465881 
	C193.406921,286.489960 192.777893,287.514069 192.148865,288.538147 
	C191.131393,287.308380 190.113922,286.078613 189.286774,284.522339 
z"/>
</svg>